<svg width="16" height="16" viewBox="0 0 16 16" fill="none" xmlns="http://www.w3.org/2000/svg">
<path d="M5.33337 8L5.33337 5.33333C5.33337 3.86057 6.52728 2.66667 8.00004 2.66667C9.4728 2.66667 10.6667 3.86057 10.6667 5.33333L10.6667 8" stroke="#8C8C8C" stroke-linecap="round"/>
<path d="M2.36102 9.66782C2.50609 7.92692 2.57863 7.05647 3.15271 6.52824C3.7268 6 4.60027 6 6.3472 6H9.6528C11.3997 6 12.2732 6 12.8473 6.52824C13.4214 7.05647 13.4939 7.92692 13.639 9.66782L13.8195 11.8339C13.904 12.8474 13.9462 13.3542 13.6491 13.6771C13.352 14 12.8435 14 11.8264 14H4.1736C3.15655 14 2.64802 14 2.35092 13.6771C2.05382 13.3542 2.09605 12.8474 2.18051 11.8339L2.36102 9.66782Z" stroke="#8C8C8C"/>
</svg>
