<svg width="25" height="26" viewBox="0 0 25 26" fill="none" xmlns="http://www.w3.org/2000/svg">
<path d="M4.63614 14.9877L11.8784 21.7911L11.8785 21.7911C12.1418 22.0384 12.2734 22.1621 12.4307 22.1841C12.4767 22.1906 12.5233 22.1906 12.5693 22.1841C12.7266 22.1621 12.8583 22.0384 13.1216 21.7911L20.3639 14.9877C22.4016 13.0735 22.649 9.9235 20.9352 7.71461L20.613 7.29928C18.5628 4.65681 14.4476 5.09997 13.007 8.11835C12.8035 8.54471 12.1966 8.54471 11.9931 8.11835C10.5525 5.09997 6.43723 4.65682 4.38704 7.29928L4.0648 7.71461C2.35101 9.9235 2.59846 13.0735 4.63614 14.9877Z" stroke="#8C8C8C" stroke-width="1.5"/>
</svg>
