<svg width="25" height="24" viewBox="0 0 25 24" fill="none" xmlns="http://www.w3.org/2000/svg">
<path d="M13.75 4C16.5589 4 17.9638 3.99971 18.9727 4.67383C19.4093 4.96562 19.7844 5.34068 20.0762 5.77734C20.7503 6.78624 20.75 8.19108 20.75 11C20.75 13.8089 20.7503 15.2138 20.0762 16.2227C19.7844 16.6593 19.4093 17.0344 18.9727 17.3262C18.0913 17.9151 16.9077 17.9896 14.75 17.999V18L13.6445 20.2109C13.276 20.948 12.224 20.948 11.8555 20.2109L10.75 18V17.999C8.5923 17.9896 7.4087 17.9151 6.52734 17.3262C6.09068 17.0344 5.71562 16.6593 5.42383 16.2227C4.74971 15.2138 4.75 13.8089 4.75 11C4.75 8.19108 4.74971 6.78624 5.42383 5.77734C5.71562 5.34068 6.09068 4.96562 6.52734 4.67383C7.53624 3.99971 8.94108 4 11.75 4H13.75ZM9.75 12C9.19772 12 8.75 12.4477 8.75 13C8.75 13.5523 9.19772 14 9.75 14H12.75C13.3023 14 13.75 13.5523 13.75 13C13.75 12.4477 13.3023 12 12.75 12H9.75ZM9.75 8C9.19772 8 8.75 8.44772 8.75 9C8.75 9.55228 9.19772 10 9.75 10H15.75C16.3023 10 16.75 9.55228 16.75 9C16.75 8.44772 16.3023 8 15.75 8H9.75Z" fill="#4F4F4F"/>
</svg>
