<svg width="25" height="24" viewBox="0 0 25 24" fill="none" xmlns="http://www.w3.org/2000/svg">
<path d="M5.75 12.7595C5.75 11.4018 5.75 10.7229 6.02446 10.1262C6.29892 9.52943 6.81437 9.08763 7.84525 8.20401L8.84525 7.34687C10.7086 5.74974 11.6402 4.95117 12.75 4.95117C13.8598 4.95117 14.7914 5.74974 16.6547 7.34687L17.6547 8.20401C18.6856 9.08763 19.2011 9.52943 19.4755 10.1262C19.75 10.7229 19.75 11.4018 19.75 12.7595V16.9999C19.75 18.8856 19.75 19.8284 19.1642 20.4142C18.5784 20.9999 17.6356 20.9999 15.75 20.9999H9.75C7.86438 20.9999 6.92157 20.9999 6.33579 20.4142C5.75 19.8284 5.75 18.8856 5.75 16.9999V12.7595Z" stroke="#4F4F4F" stroke-width="1.5"/>
<path d="M15.25 21V16C15.25 15.4477 14.8023 15 14.25 15H11.25C10.6977 15 10.25 15.4477 10.25 16V21" stroke="#4F4F4F" stroke-width="1.5" stroke-linecap="round" stroke-linejoin="round"/>
</svg>
