<svg width="25" height="24" viewBox="0 0 25 24" fill="none" xmlns="http://www.w3.org/2000/svg">
<path fill-rule="evenodd" clip-rule="evenodd" d="M12.5003 3.1543C7.29576 3.1543 3.07178 6.43544 3.07178 10.4709C3.07178 12.9883 4.70291 15.1852 7.19205 16.524L6.14548 20.3614C6.12573 20.4378 6.1298 20.5183 6.15713 20.5923C6.18446 20.6662 6.23375 20.73 6.29838 20.7752C6.36302 20.8203 6.43992 20.8446 6.51876 20.8448C6.5976 20.845 6.67461 20.8211 6.73948 20.7763L11.3217 17.7309C11.7083 17.7309 12.1043 17.7969 12.5003 17.7969C17.7049 17.7969 21.9289 14.5157 21.9289 10.4709C21.9289 6.42601 17.7049 3.1543 12.5003 3.1543Z" fill="black"/>
</svg>
