<svg width="23" height="23" viewBox="0 0 23 23" fill="none" xmlns="http://www.w3.org/2000/svg">
<path d="M4.26527 13.3287L10.9282 19.5878C11.144 19.7905 11.2518 19.8919 11.377 19.9237C11.4578 19.9441 11.5423 19.9441 11.623 19.9237C11.7482 19.8919 11.8561 19.7905 12.0719 19.5878L18.7348 13.3287C20.6095 11.5677 20.8371 8.6697 19.2604 6.63752L18.964 6.25541C17.0778 3.82435 13.2918 4.23205 11.9664 7.00896C11.7792 7.40121 11.2209 7.40121 11.0337 7.00896C9.70831 4.23205 5.92228 3.82434 4.03611 6.25541L3.73964 6.63752C2.16295 8.6697 2.3906 11.5677 4.26527 13.3287Z" stroke="#482727" stroke-width="1.5"/>
</svg>
