<svg width="16" height="16" viewBox="0 0 16 16" fill="none" xmlns="http://www.w3.org/2000/svg">
<path d="M10.0654 8.42283L8.66671 7.6155V4.66683C8.66671 4.49002 8.59647 4.32045 8.47145 4.19542C8.34642 4.0704 8.17686 4.00016 8.00004 4.00016C7.82323 4.00016 7.65366 4.0704 7.52864 4.19542C7.40362 4.32045 7.33338 4.49002 7.33338 4.66683V8.00016C7.33338 8.11718 7.36419 8.23214 7.4227 8.33349C7.48121 8.43483 7.56537 8.51898 7.66671 8.5775L9.39871 9.5775C9.47456 9.62196 9.55845 9.65098 9.64556 9.66289C9.73267 9.67481 9.82128 9.66937 9.90628 9.64689C9.99127 9.62442 10.071 9.58536 10.1408 9.53195C10.2107 9.47855 10.2693 9.41185 10.3132 9.33571C10.3572 9.25957 10.3856 9.17549 10.397 9.0883C10.4083 9.00112 10.4023 8.91255 10.3793 8.8277C10.3562 8.74285 10.3166 8.6634 10.2628 8.59391C10.2089 8.52443 10.1418 8.46628 10.0654 8.42283ZM8.00004 1.3335C6.6815 1.3335 5.39257 1.72449 4.29624 2.45703C3.19991 3.18957 2.34543 4.23077 1.84085 5.44894C1.33626 6.66711 1.20424 8.00756 1.46148 9.30076C1.71871 10.594 2.35365 11.7819 3.286 12.7142C4.21835 13.6466 5.40624 14.2815 6.69944 14.5387C7.99265 14.796 9.33309 14.6639 10.5513 14.1594C11.7694 13.6548 12.8106 12.8003 13.5432 11.704C14.2757 10.6076 14.6667 9.3187 14.6667 8.00016C14.6649 6.23259 13.962 4.53793 12.7121 3.28807C11.4623 2.03821 9.76761 1.33526 8.00004 1.3335ZM8.00004 13.3335C6.94521 13.3335 5.91406 13.0207 5.037 12.4347C4.15994 11.8486 3.47635 11.0157 3.07269 10.0411C2.66902 9.0666 2.5634 7.99425 2.76919 6.95968C2.97498 5.92512 3.48293 4.97481 4.22881 4.22893C4.97469 3.48305 5.925 2.9751 6.95956 2.76931C7.99413 2.56352 9.06648 2.66914 10.041 3.07281C11.0156 3.47647 11.8485 4.16006 12.4345 5.03712C13.0206 5.91418 13.3334 6.94533 13.3334 8.00016C13.3316 9.41411 12.7691 10.7696 11.7693 11.7694C10.7695 12.7693 9.41399 13.3317 8.00004 13.3335Z" fill="#757575"/>
</svg>
