<svg width="30" height="30" viewBox="0 0 30 30" fill="none" xmlns="http://www.w3.org/2000/svg">
<path d="M18.7178 12.2515L12.7644 9.64694C9.80179 8.35079 8.32048 7.70271 7.61235 8.27076C7.48516 8.37279 7.37546 8.49487 7.28756 8.63221C6.79818 9.39682 7.60038 10.8007 9.20477 13.6084C9.5654 14.2394 9.74571 14.555 9.76896 14.8988C9.77351 14.9662 9.77351 15.0338 9.76896 15.1012C9.74571 15.445 9.5654 15.7606 9.20477 16.3916C7.60038 19.1993 6.79818 20.6032 7.28756 21.3678C7.37546 21.5051 7.48516 21.6272 7.61235 21.7292C8.32048 22.2973 9.80179 21.6492 12.7644 20.3531L18.7178 17.7485C21.411 16.5702 22.7577 15.981 22.7577 15C22.7577 14.019 21.411 13.4298 18.7178 12.2515Z" stroke="#4F4F4F" stroke-width="1.8"/>
</svg>
