<svg width="16" height="16" viewBox="0 0 16 16" fill="none" xmlns="http://www.w3.org/2000/svg">
<path d="M3.08199 7.12087C2.9226 6.97347 3.00918 6.70701 3.22476 6.68144L6.27951 6.31912C6.36737 6.3087 6.44369 6.25352 6.48075 6.17318L7.7692 3.37986C7.86013 3.18273 8.14038 3.18269 8.23131 3.37983L9.51976 6.17312C9.55681 6.25346 9.63264 6.30879 9.7205 6.31921L12.7754 6.68144C12.991 6.70701 13.0773 6.97355 12.9179 7.12095L10.6597 9.20964C10.5948 9.26972 10.5659 9.35913 10.5831 9.44592L11.1824 12.4631C11.2247 12.676 10.9981 12.841 10.8087 12.7349L8.12449 11.2321C8.04728 11.1888 7.95348 11.189 7.87628 11.2323L5.1918 12.7346C5.00236 12.8406 4.77533 12.676 4.81764 12.4631L5.41706 9.44611C5.4343 9.35932 5.40545 9.2697 5.34049 9.20963L3.08199 7.12087Z" fill="#4F4DF8" stroke="#4F4DF8" stroke-width="1.5" stroke-linecap="round" stroke-linejoin="round"/>
</svg>
