<svg width="25" height="24" viewBox="0 0 25 24" fill="none" xmlns="http://www.w3.org/2000/svg">
<path d="M20.0759 5.77772C20.75 6.78661 20.75 8.19108 20.75 11C20.75 13.8089 20.75 15.2134 20.0759 16.2223C19.784 16.659 19.409 17.034 18.9723 17.3259C18.0909 17.9148 16.9077 17.9892 14.75 17.9986V18L13.6444 20.2111C13.2759 20.9482 12.2241 20.9482 11.8556 20.2111L10.75 18V17.9986C8.5923 17.9892 7.40907 17.9148 6.52772 17.3259C6.09096 17.034 5.71596 16.659 5.42412 16.2223C4.75 15.2134 4.75 13.8089 4.75 11C4.75 8.19108 4.75 6.78661 5.42412 5.77772C5.71596 5.34096 6.09096 4.96596 6.52772 4.67412C7.53661 4 8.94108 4 11.75 4H13.75C16.5589 4 17.9634 4 18.9723 4.67412C19.409 4.96596 19.784 5.34096 20.0759 5.77772Z" stroke="#4F4F4F" stroke-width="1.5" stroke-linecap="round" stroke-linejoin="round"/>
<path d="M9.75 9L15.75 9" stroke="#4F4F4F" stroke-width="1.5" stroke-linecap="round" stroke-linejoin="round"/>
<path d="M9.75 13H12.75" stroke="#4F4F4F" stroke-width="1.5" stroke-linecap="round" stroke-linejoin="round"/>
</svg>
