<svg width="25" height="24" viewBox="0 0 25 24" fill="none" xmlns="http://www.w3.org/2000/svg">
<path d="M14.25 16V21H11.25V16H14.25ZM12.75 4.95117C13.8597 4.95117 14.7912 5.74975 16.6543 7.34668L17.6543 8.2041C18.6851 9.08765 19.2011 9.52931 19.4756 10.126C19.75 10.7227 19.75 11.402 19.75 12.7598V17C19.75 18.8856 19.7498 19.8283 19.1641 20.4141C18.6325 20.9456 17.8071 20.9915 16.25 20.9961V16C16.25 14.8954 15.3546 14 14.25 14H11.25C10.1454 14 9.25 14.8954 9.25 16V20.9961C7.69288 20.9915 6.86748 20.9456 6.33594 20.4141C5.75016 19.8283 5.75 18.8856 5.75 17V12.7598C5.75 11.402 5.74995 10.7227 6.02441 10.126C6.29889 9.52931 6.8149 9.08765 7.8457 8.2041L8.8457 7.34668C10.7088 5.74975 11.6403 4.95117 12.75 4.95117Z" fill="#4F4F4F"/>
</svg>
