<svg width="16" height="16" viewBox="0 0 16 16" fill="none" xmlns="http://www.w3.org/2000/svg">
<path d="M2.96708 9.27216L7.60215 13.6263C7.65399 13.675 7.67992 13.6994 7.7046 13.7174C7.88046 13.8462 8.11946 13.8462 8.29532 13.7174C8.32 13.6994 8.34592 13.675 8.39777 13.6263L13.0328 9.27216C14.337 8.04708 14.4953 6.03109 13.3985 4.6174L13.1923 4.35158C11.8801 2.66041 9.24638 2.94403 8.3244 4.87579C8.19417 5.14866 7.80575 5.14866 7.67552 4.87579C6.75354 2.94403 4.11977 2.66041 2.80766 4.35158L2.60142 4.6174C1.50459 6.03109 1.66296 8.04708 2.96708 9.27216Z" stroke="#8C8C8C"/>
</svg>
